/* XPM */
static char *_565690ca8a74f7aae82882eb6735b262clsB67cKngnt8Fi[] = {
/* columns rows colors chars-per-pixel */
"32 32 3 1 ",
"  c None",
". c black",
"X c white",
/* pixels */
"       ....          ....       ",
"      ......        ......      ",
"     .......        .......     ",
"     ......................     ",
"     .....XXXXXXXXXXXX.....     ",
"     ....XXXXXXXXXXXXXX....     ",
"      ..XX...XXXXXX...XX..      ",
"      ..X.....XXXX.....X..      ",
"      .XX..X..XXXX..X..XX.      ",
"      .X..X...XXXX...X..X.      ",
"      .X.....XXXXXX.....X.      ",
"      .X....XXXXXXXX....X.      ",
"      .XX..XXX....XXX..XX.      ",
"      .XXXXXXX....XXXXXXX.      ",
"      .XXXXXXXX..XXXXXXXX.      ",
"      ..XXXXX.X..X.XXXXX..      ",
"       ..XXXXX.XX.XXXXX..       ",
"        ..XXXXXXXXXXXX..        ",
"        ................        ",
"       ..................       ",
"      ....................      ",
"     ......XXXXXXXXXX......     ",
"     .....XXXXXXXXXXXX.....     ",
"     .......XXXXXXXX.......     ",
"      .......XXXXXX.......      ",
"      .X.....XXXXXX.....X.      ",
"      .XX....XXXXXX....XX.      ",
"      ..XXXXXXXXXXXXXXXX...     ",
"     ....XXXXXXXXXXXXXX....     ",
"    ........................    ",
"    .......           ......    ",
"    ......            ......    "
};
