/* XPM */
static char *_2ca25ce9e37458fba918f229a02aaadWlRqpPglnHF90Adp[] = {
/* columns rows colors chars-per-pixel */
"32 32 5 1 ",
"  c None",
". c #42B735",
"X c #159640",
"o c #69E05C",
"O c #47C963",
/* pixels */
"                                ",
"             oo  OO             ",
"              ooOO              ",
"              ooOO              ",
"              ooOO    XX        ",
"              ooOO  XXXX        ",
"              ooOO XXXX         ",
"              ooOO XXXX         ",
"              ooOOXXXX          ",
"              ooOOXX            ",
"              ooOO              ",
"             oooOOO             ",
"             ...XXX             ",
"              ..XX              ",
"              ..XX              ",
"              ..XX              ",
"              ..XX              ",
"              ..XX              ",
"              ..XX              ",
"              ..XX              ",
"              ..XX              ",
"              ..XX              ",
"             ...XXX             ",
"             oooOOO             ",
"              ooOO              ",
"            ..ooOO              ",
"          ....ooOO              ",
"          ... ooOO              ",
"         .... ooOO              ",
"         ..   ooOO              ",
"              ooOO              ",
"             oooOOO             "
};
