/* XPM */
static char *_e043a78d86c4c4db5deb6352cd0c3fb8ZngZebfUUgETcKa[] = {
/* columns rows colors chars-per-pixel */
"32 32 4 1 ",
"  c None",
". c black",
"X c #FFFCD1",
"o c white",
/* pixels */
"                            ... ",
"                     ....     . ",
"                        .    .  ",
"             .....     .    .   ",
"                 .    .     ... ",
"                .    .          ",
"      .....    .     ....       ",
"          .   .                 ",
"         .   .                  ",
"        .    .....              ",
"       .                        ",
"      .                         ",
" ...  .....                     ",
".....                           ",
".........        ..........     ",
".....oooo..... ..oooooooooo.    ",
" ..oooooooo....ooooooooooooo.   ",
"  .oooo...o.....ooooooooooooo.  ",
" .oooo....oo.....oooooooooooo.  ",
" .oooo...ooo.....oooooooooooo...",
" .oooo..oooo.....oooooooooooo...",
" .ooooooo.oo.....ooooo.....oo.  ",
" .ooooooo..o.....oooo.......o.  ",
"  .oooooo.oo.....ooo..........  ",
" ..ooo..oooo.....oo...........  ",
"....oo...ooo.....oo...........  ",
"....ooooooo.....ooo...........  ",
".....ooooo.....oooo..........   ",
"....X.....X... .... ........    ",
" ..XXXXXXXX                     ",
"   XXXXXXXX                     ",
"                                "
};
