/* XPM */
static char *_e9c8ea4f7e14df1d54e321f23159229KLAaEhMqqeMvD741[] = {
/* columns rows colors chars-per-pixel */
"32 32 2 1 ",
"  c #389956",
". c #42A05B",
/* pixels */
"                                ",
"                                ",
"             ..                 ",
" .. ..    .  .                  ",
"  ...     ...           ..  ..  ",
"  ..        .            ....   ",
"   .        .             ...   ",
"                           .    ",
"      .  ..     ..  ..          ",
"      .. .       ....           ",
"       ...        ..            ",
"       ..          .            ",
" . .                        . . ",
" ...                         .  ",
"  .           .  .              ",
"              ....              ",
"               ..               ",
"                                ",
"                  ...    ..     ",
"      .   .        ...  ..      ",
"      .. ..         .. ..       ",
"       ...           ....       ",
"       ..            ...        ",
"                      ..        ",
"                                ",
"                                ",
"             . .                ",
" .   .       ...                ",
"  . .         .            .. ..",
"  ...                       ... ",
"   .                        ... ",
"                                "
};
